<?xml version="1.0" encoding="utf-8"?>
<!-- Generator: Adobe Illustrator 23.0.2, SVG Export Plug-In . SVG Version: 6.00 Build 0)  -->
<svg version="1.1" id="Layer_1" xmlns="http://www.w3.org/2000/svg" xmlns:xlink="http://www.w3.org/1999/xlink" x="0px" y="0px"
	 viewBox="0 0 2409.4 5669.3" style="enable-background:new 0 0 2409.4 5669.3;" xml:space="preserve">
<style type="text/css">
	.st0{fill:#003572;}
</style>
<g>
	<path class="st0" d="M160.3,1065.5C177,1300.9,138,1533,89.1,1765.9c-26.5,126.2-49,276,39.9,404.1c64.9,93.5,154,59.6,236.9,52.2
		c49.9-4.4,57.6-62.2,36.3-82.2c-151.5-142.2-72.9-342.7-134-506.5c-18.4-49.2-16.7-97.1,6.7-147.9
		c138.3-299.7,192.1-618.4,186.7-945.9c-3.2-198,60.1-380,113.8-565.6H255.8C214.2,336.7,134,695.6,160.3,1065.5z"/>
	<path class="st0" d="M1990.4,455.5c-1.2,313.5,55,612.6,139.2,913.3c66,235.9,76,481.6-46.2,714.8
		c-36.3,69.3-28.4,138.7,81.3,149.3c153.3,14.7,205.2-28.4,211.3-192.8c11.3-304-103.3-595.2-83.2-902.1
		c14.4-220.5,26-447.3-24.8-663.2c-39.2-166.6-62.3-331.6-76.9-500.9h-297.5C1937,142.4,1991,294.4,1990.4,455.5z"/>
	<path class="st0" d="M1720.3,4729.7c134-547.3,176.2-1098.9,96-1657.3c-21.7-151.4-8.2-297.9,17.2-445.6
		c34.1-198.2,65.1-397,103.3-594.4c60.5-312.4,66-628.4,2-936c-43.3-208.5-151.5-402.6-222.4-606.1c-61.9-177.8-46.9-344,13.1-516.3
		H699.7c28.8,81.3,54.4,163.1,59.9,252.5c12.5,202.1-70.3,369.6-138,541.3c-187.9,477-173.7,956-76.1,1449.4
		c60,303.3,136.6,607.4,88.9,927.2c-65.3,437.6-79.3,884.1,33.3,1312.2c107.2,407.7,180.9,807.6,96,1215.4h311.8
		c10.9-135.7,13.8-269.7-18-394.5c-74.3-292.2-57.6-570.1-22.4-854.7c31.2-252.3,52.6-505.8,16-756c-34.6-236.5-1-461.7,44.6-689.7
		c22.2-111,32.2-224.7,58.1-334.7c33-139.6-0.9-293.4,92-423.6c25.1,394.5,133.1,773.7,177.4,1162.9c5.2,45.8,6.5,93.8-1,139
		c-58,350.7-31.9,699.4,18.3,1048c25.9,179.6,56.9,376,0.6,536.9c-66.7,190.7-45.8,379-35.8,566.3H1692
		C1618.6,5357.6,1643.6,5043.2,1720.3,4729.7z"/>
</g>
</svg>
